<svg xmlns="http://www.w3.org/2000/svg" xmlns:xlink="http://www.w3.org/1999/xlink" width="500" zoomAndPan="magnify" viewBox="0 0 375 374.999991" height="500" preserveAspectRatio="xMidYMid meet" version="1.0"><defs><g/></defs><rect x="-37.5" width="450" fill="#ffffff" y="-37.499999" height="449.999989" fill-opacity="1"/><rect x="-37.5" width="450" fill="#000000" y="-37.499999" height="449.999989" fill-opacity="1"/><g fill="#6b9cff" fill-opacity="1"><g transform="translate(39.222658, 163.917119)"><g><path d="M 70.769531 0 L 70.769531 -13.480469 L 16.847656 -13.480469 L 16.847656 -53.917969 L 70.769531 -53.917969 L 70.769531 -67.398438 L 16.847656 -67.398438 C 9.4375 -67.398438 3.371094 -61.332031 3.371094 -53.917969 L 3.371094 -13.480469 C 3.371094 -6.066406 9.4375 0 16.847656 0 Z M 70.769531 0 "/></g></g></g><g fill="#6b9cff" fill-opacity="1"><g transform="translate(113.359174, 163.917119)"><g><path d="M 57.289062 0 C 64.785156 0 70.769531 -6.148438 70.769531 -13.480469 L 70.769531 -53.917969 C 70.769531 -61.332031 64.703125 -67.398438 57.289062 -67.398438 L 16.847656 -67.398438 C 9.4375 -67.398438 3.371094 -61.332031 3.371094 -53.917969 L 3.371094 -13.480469 C 3.371094 -6.066406 9.4375 0 16.847656 0 Z M 16.847656 -53.917969 L 57.289062 -53.917969 L 57.289062 -13.480469 L 16.847656 -13.480469 Z M 16.847656 -53.917969 "/></g></g></g><g fill="#6b9cff" fill-opacity="1"><g transform="translate(187.495689, 163.917119)"><g><path d="M 57.289062 0 C 64.703125 0 70.769531 -6.066406 70.769531 -13.480469 L 70.769531 -53.917969 C 70.769531 -61.332031 64.703125 -67.398438 57.289062 -67.398438 L 3.371094 -67.398438 L 3.371094 0 Z M 16.847656 -53.917969 L 57.289062 -53.917969 L 57.289062 -13.480469 L 16.847656 -13.480469 Z M 16.847656 -53.917969 "/></g></g></g><g fill="#6b9cff" fill-opacity="1"><g transform="translate(261.632205, 163.917119)"><g><path d="M 70.769531 -67.398438 L 16.847656 -67.398438 C 9.4375 -67.398438 3.371094 -61.332031 3.371094 -53.917969 L 3.371094 -13.480469 C 3.371094 -6.066406 9.4375 0 16.847656 0 L 70.769531 0 L 70.769531 -13.480469 L 16.847656 -13.480469 L 16.847656 -26.960938 L 70.769531 -26.960938 L 70.769531 -40.4375 L 16.847656 -40.4375 L 16.847656 -53.917969 L 70.769531 -53.917969 Z M 70.769531 -67.398438 "/></g></g></g><g fill="#b878ff" fill-opacity="1"><g transform="translate(36.257815, 271.69258)"><g><path d="M 96.25 -91.667969 L 22.917969 -91.667969 C 12.832031 -91.667969 4.582031 -83.417969 4.582031 -73.335938 L 4.582031 -18.332031 C 4.582031 -8.25 12.832031 0 22.917969 0 L 77.917969 0 C 88.117188 0 96.25 -8.363281 96.25 -18.332031 L 96.25 -55 L 41.25 -55 L 41.25 -36.667969 L 77.917969 -36.667969 L 77.917969 -18.332031 L 22.917969 -18.332031 L 22.917969 -73.335938 L 96.25 -73.335938 Z M 96.25 -91.667969 "/></g></g></g><g fill="#b878ff" fill-opacity="1"><g transform="translate(137.083049, 271.69258)"><g><path d="M 77.917969 -91.667969 L 4.582031 -91.667969 L 4.582031 0 L 22.917969 0 L 22.917969 -36.667969 L 77.917969 -36.667969 C 88 -36.667969 96.25 -44.917969 96.25 -55 L 96.25 -73.335938 C 96.25 -83.417969 88 -91.667969 77.917969 -91.667969 Z M 22.917969 -55 L 22.917969 -73.335938 L 77.917969 -73.335938 L 77.917969 -55 Z M 22.917969 -55 "/></g></g></g><g fill="#b878ff" fill-opacity="1"><g transform="translate(237.908284, 271.69258)"><g><path d="M 96.25 -91.667969 L 4.582031 -91.667969 L 4.582031 -73.335938 L 41.25 -73.335938 L 41.25 0 L 59.585938 0 L 59.585938 -73.335938 L 96.25 -73.335938 Z M 96.25 -91.667969 "/></g></g></g></svg>
